<svg width="192" height="192" viewBox="0 0 192 192" fill="none" xmlns="http://www.w3.org/2000/svg">
<mask id="mask0_170_305" style="mask-type:alpha" maskUnits="userSpaceOnUse" x="5" y="38" width="182" height="115">
<path d="M184.211 40.6136L184.211 87.6591C184.211 122.302 156.127 150.386 121.483 150.386L7.61364 150.386L7.61364 103.341C7.61365 68.6976 35.6976 40.6136 70.3409 40.6136L184.211 40.6136Z" stroke="black" stroke-width="5.22727"/>
</mask>
<g mask="url(#mask0_170_305)">
<rect opacity="0.5" x="-10.697" y="6.63635" width="83.7177" height="164.659" fill="#166B8E"/>
<rect opacity="0.5" x="73.0206" y="6.63635" width="44.475" height="164.659" fill="#61B1D1"/>
<rect opacity="0.5" x="117.496" y="6.63635" width="83.7177" height="164.659" fill="#1D8FBD"/>
</g>
<path d="M72.4088 124.534L67.5474 108.147H47.8667L43.0054 124.534H36.7327L53.8258 69.8045H61.6667L78.8383 124.534H72.4088ZM59.7849 82.1931L58.0599 75.3716H57.2758L55.5508 82.1931L49.3565 102.972H66.1361L59.7849 82.1931Z" fill="#166B8E"/>
<path d="M100.958 125.475C97.0372 125.475 93.6133 124.665 90.6861 123.044C87.7588 121.372 85.3281 119.072 83.394 116.144L87.9418 112.381C89.6145 114.837 91.4963 116.745 93.5872 118.105C95.6781 119.411 98.1349 120.065 100.958 120.065C108.38 120.065 112.092 116.589 112.092 109.636C112.092 106.814 111.412 104.67 110.053 103.207C108.694 101.743 106.342 100.593 102.996 99.7568L98.919 98.7375C94.1099 97.5352 90.5554 95.7841 88.2554 93.4841C86.0077 91.1318 84.8838 87.8386 84.8838 83.6045C84.8838 78.7431 86.3997 75.0841 89.4315 72.6272C92.4633 70.1181 96.4883 68.8636 101.507 68.8636C105.322 68.8636 108.511 69.5693 111.072 70.9806C113.686 72.392 115.96 74.6136 117.894 77.6454L113.268 80.9386C111.857 78.7431 110.236 77.0966 108.407 75.9988C106.629 74.8488 104.251 74.2738 101.271 74.2738C97.9258 74.2738 95.3645 75.0056 93.5872 76.4693C91.8622 77.9329 90.9997 80.3113 90.9997 83.6045C90.9997 86.2704 91.7054 88.2829 93.1168 89.642C94.5804 91.0011 96.9065 92.0727 100.095 92.8568L104.172 93.8761C106.734 94.5034 108.903 95.2613 110.68 96.15C112.458 96.9863 113.895 98.0318 114.993 99.2863C116.143 100.541 116.953 102.031 117.424 103.756C117.946 105.428 118.208 107.389 118.208 109.636C118.208 114.811 116.666 118.758 113.582 121.476C110.55 124.142 106.342 125.475 100.958 125.475Z" fill="#61B1D1"/>
<path d="M138.86 125.475C135.514 125.475 132.639 124.795 130.235 123.436C127.883 122.077 125.87 120.195 124.197 117.791L128.353 114.341C129.764 116.327 131.28 117.843 132.901 118.889C134.574 119.934 136.56 120.457 138.86 120.457C141.212 120.457 143.068 119.882 144.427 118.732C145.838 117.53 146.544 115.831 146.544 113.635C146.544 111.858 146.1 110.42 145.211 109.323C144.322 108.225 142.676 107.467 140.271 107.049L137.213 106.5C133.293 105.768 130.366 104.54 128.431 102.815C126.55 101.09 125.609 98.4761 125.609 94.9738C125.609 92.9352 125.922 91.1841 126.55 89.7204C127.177 88.2045 128.066 86.9761 129.216 86.0352C130.366 85.042 131.725 84.3363 133.293 83.9181C134.913 83.4477 136.664 83.2125 138.546 83.2125C141.578 83.2125 144.113 83.7613 146.152 84.8591C148.243 85.9045 150.046 87.4466 151.562 89.4852L147.72 93.0136C146.831 91.7591 145.655 90.6613 144.192 89.7204C142.728 88.7272 140.846 88.2306 138.546 88.2306C133.789 88.2306 131.411 90.4 131.411 94.7386C131.411 96.725 131.908 98.1886 132.901 99.1295C133.946 100.018 135.619 100.672 137.919 101.09L140.977 101.639C145.106 102.37 148.034 103.651 149.759 105.481C151.484 107.31 152.346 109.793 152.346 112.93C152.346 116.85 151.196 119.934 148.896 122.182C146.649 124.377 143.303 125.475 138.86 125.475Z" fill="#1D8FBD"/>
</svg>
