<svg width="512" height="512" viewBox="0 0 512 512" fill="none" xmlns="http://www.w3.org/2000/svg">
<mask id="mask0_170_306" style="mask-type:alpha" maskUnits="userSpaceOnUse" x="5" y="97" width="502" height="317">
<path d="M498.998 104.205L498.998 233.886C498.998 329.381 421.584 406.795 326.089 406.795L12.2046 406.795L12.2046 277.114C12.2046 181.619 89.6186 104.205 185.114 104.205L498.998 104.205Z" stroke="black" stroke-width="14.4091"/>
</mask>
<g mask="url(#mask0_170_306)">
<rect opacity="0.5" x="-38.2692" y="10.5455" width="230.77" height="453.886" fill="#166B8E"/>
<rect opacity="0.5" x="192.5" y="10.5455" width="122.596" height="453.886" fill="#61B1D1"/>
<rect opacity="0.5" x="315.097" y="10.5455" width="230.77" height="453.886" fill="#1D8FBD"/>
</g>
<path d="M190.814 337.011L177.413 291.839H123.163L109.763 337.011H92.4718L139.59 186.148H161.203L208.537 337.011H190.814ZM156.016 220.298L151.261 201.494H149.1L144.345 220.298L127.27 277.574H173.523L156.016 220.298Z" fill="#166B8E"/>
<path d="M269.509 339.605C258.703 339.605 249.265 337.372 241.196 332.905C233.127 328.294 226.426 321.954 221.095 313.885L233.631 303.51C238.242 310.282 243.429 315.542 249.193 319.288C254.956 322.89 261.729 324.692 269.509 324.692C289.97 324.692 300.201 315.109 300.201 295.945C300.201 288.164 298.328 282.257 294.581 278.222C290.835 274.188 284.351 271.018 275.129 268.712L263.89 265.902C250.634 262.588 240.835 257.761 234.495 251.421C228.299 244.937 225.202 235.859 225.202 224.188C225.202 210.788 229.38 200.701 237.737 193.929C246.095 187.013 257.19 183.554 271.022 183.554C281.541 183.554 290.331 185.5 297.391 189.39C304.596 193.281 310.864 199.404 316.195 207.762L303.443 216.839C299.552 210.788 295.086 206.249 290.042 203.223C285.143 200.053 278.587 198.468 270.374 198.468C261.152 198.468 254.092 200.485 249.193 204.52C244.438 208.554 242.06 215.11 242.06 224.188C242.06 231.537 244.005 237.084 247.896 240.831C251.93 244.577 258.342 247.531 267.132 249.692L278.371 252.502C285.432 254.231 291.411 256.32 296.31 258.77C301.209 261.075 305.172 263.957 308.198 267.415C311.368 270.874 313.601 274.98 314.898 279.735C316.339 284.346 317.059 289.749 317.059 295.945C317.059 310.21 312.809 321.089 304.307 328.582C295.95 335.931 284.351 339.605 269.509 339.605Z" fill="#61B1D1"/>
<path d="M373.988 339.605C364.766 339.605 356.841 337.732 350.213 333.985C343.729 330.239 338.181 325.052 333.57 318.424L345.025 308.914C348.916 314.389 353.095 318.568 357.561 321.449C362.172 324.331 367.648 325.772 373.988 325.772C380.472 325.772 385.587 324.187 389.333 321.017C393.224 317.703 395.169 313.02 395.169 306.968C395.169 302.069 393.944 298.107 391.495 295.081C389.045 292.055 384.506 289.966 377.878 288.813L369.449 287.3C358.642 285.283 350.573 281.897 345.242 277.142C340.054 272.387 337.461 265.182 337.461 255.528C337.461 249.908 338.325 245.081 340.054 241.047C341.783 236.868 344.233 233.482 347.403 230.888C350.573 228.151 354.319 226.205 358.642 225.053C363.109 223.756 367.936 223.107 373.123 223.107C381.48 223.107 388.469 224.62 394.088 227.646C399.852 230.528 404.823 234.779 409.002 240.398L398.411 250.124C395.962 246.666 392.72 243.64 388.685 241.047C384.65 238.309 379.463 236.94 373.123 236.94C360.011 236.94 353.455 242.92 353.455 254.879C353.455 260.355 354.824 264.389 357.561 266.983C360.443 269.433 365.054 271.234 371.394 272.387L379.823 273.899C391.207 275.917 399.276 279.447 404.031 284.49C408.786 289.533 411.163 296.378 411.163 305.023C411.163 315.83 407.993 324.331 401.653 330.527C395.457 336.579 386.235 339.605 373.988 339.605Z" fill="#1D8FBD"/>
</svg>
