<svg width="40" height="40" viewBox="0 0 40 40" fill="none" xmlns="http://www.w3.org/2000/svg">
<path d="M20 6L33.8564 30H6.14359L20 6Z" fill="#505050"/>
<path d="M0 -1H35C38.3137 -1 41 1.68629 41 5H39C39 2.79086 37.2091 1 35 1H0V-1ZM41 35C41 38.3137 38.3137 41 35 41H0V39H35C37.2091 39 39 37.2091 39 35H41ZM0 40V0V40ZM35 -1C38.3137 -1 41 1.68629 41 5V35C41 38.3137 38.3137 41 35 41V39C37.2091 39 39 37.2091 39 35V5C39 2.79086 37.2091 1 35 1V-1Z" fill="#DCDCDC" mask="url(#path-1-inside-1_105_1063)"/>
</svg>
