<svg width="40" height="40" viewBox="0 0 40 40" fill="none" xmlns="http://www.w3.org/2000/svg">
<path d="M28.5825 19.0333C29.5987 17.7366 30.1535 16.1425 30.16 14.5C30.16 10.365 26.7681 7 22.6 7H10V32H23.44C27.6081 32 31 28.635 31 24.5C30.9977 23.4728 30.7819 22.4572 30.3659 21.5166C29.9499 20.5759 29.3428 19.7306 28.5825 19.0333ZM22.6 12C23.9894 12 25.12 13.1217 25.12 14.5C25.12 15.8783 23.9894 17 22.6 17H15.04V12H22.6ZM23.44 27H15.04V22H23.44C24.8294 22 25.96 23.1217 25.96 24.5C25.96 25.8783 24.8294 27 23.44 27Z" fill="#505050"/>
<path d="M-1 5C-1 1.68629 1.68629 -1 5 -1H40V1H5C2.79086 1 1 2.79086 1 5H-1ZM40 41H5C1.68629 41 -1 38.3137 -1 35H1C1 37.2091 2.79086 39 5 39H40V41ZM5 41C1.68629 41 -1 38.3137 -1 35V5C-1 1.68629 1.68629 -1 5 -1V1C2.79086 1 1 2.79086 1 5V35C1 37.2091 2.79086 39 5 39V41ZM40 0V40V0Z" fill="#DCDCDC" mask="url(#path-1-inside-1_105_897)"/>
</svg>
