<svg width="40" height="40" viewBox="0 0 40 40" fill="none" xmlns="http://www.w3.org/2000/svg">
<g clip-path="url(#clip0_328_330)">
<path d="M35 27.5V37.5M20 5V30M20 5L10 15M20 5L30 15" stroke="#404040" stroke-width="2" stroke-linecap="round" stroke-linejoin="round"/>
<rect x="4" y="26" width="2" height="12" rx="1" fill="#404040"/>
<rect x="34" y="26" width="2" height="12" rx="1" fill="#404040"/>
<path d="M10.83 40V33.02H13.4C14.5533 33.02 15.13 33.6833 15.13 35.01C15.13 36.3367 14.5533 37 13.4 37H11.63V40H10.83ZM11.63 36.3H13.38C13.9733 36.3 14.27 35.98 14.27 35.34V34.68C14.27 34.04 13.9733 33.72 13.38 33.72H11.63V36.3ZM17.5085 33.02H19.6985C20.5052 33.02 21.1285 33.3 21.5685 33.86C22.0085 34.4133 22.2285 35.2967 22.2285 36.51C22.2285 37.7233 22.0085 38.61 21.5685 39.17C21.1285 39.7233 20.5052 40 19.6985 40H17.5085V33.02ZM19.6985 39.3C20.1985 39.3 20.6018 39.1267 20.9085 38.78C21.2152 38.4333 21.3685 37.9367 21.3685 37.29V35.73C21.3685 35.0833 21.2152 34.5867 20.9085 34.24C20.6018 33.8933 20.1985 33.72 19.6985 33.72H18.3085V39.3H19.6985ZM24.7827 40V33.02H28.5527V33.72H25.5827V36.12H28.2827V36.82H25.5827V40H24.7827Z" fill="#404040"/>
</g>
<defs>
<clipPath id="clip0_328_330">
<rect width="40" height="40" fill="white"/>
</clipPath>
</defs>
</svg>
