<svg width="40" height="40" viewBox="0 0 40 40" fill="none" xmlns="http://www.w3.org/2000/svg">
<path d="M29.7265 7H14.9573C14.8068 7 14.6838 7.12784 14.6838 7.28409V9.55682C14.6838 9.71307 14.8068 9.84091 14.9573 9.84091H21.1521L15.8188 29.1591H10.2735C10.1231 29.1591 10 29.2869 10 29.4432V31.7159C10 31.8722 10.1231 32 10.2735 32H25.0427C25.1932 32 25.3162 31.8722 25.3162 31.7159V29.4432C25.3162 29.2869 25.1932 29.1591 25.0427 29.1591H18.6632L23.9966 9.84091H29.7265C29.8769 9.84091 30 9.71307 30 9.55682V7.28409C30 7.12784 29.8769 7 29.7265 7Z" fill="#505050"/>
<path d="M0 1H40V-1H0V1ZM40 39H0V41H40V39Z" fill="#DCDCDC" mask="url(#path-1-inside-1_105_896)"/>
</svg>
