<svg width="117" height="74" viewBox="0 0 117 74" fill="none" xmlns="http://www.w3.org/2000/svg">
<mask id="mask0_247_310" style="mask-type:alpha" maskUnits="userSpaceOnUse" x="0" y="0" width="117" height="74">
<path d="M115.318 1.68182L115.318 31.9546C115.318 54.2468 97.2468 72.3182 74.9545 72.3182L1.68181 72.3182L1.68181 42.0455C1.68182 19.7532 19.7532 1.68181 42.0455 1.68181L115.318 1.68182Z" stroke="black" stroke-width="3.36364"/>
</mask>
<g mask="url(#mask0_247_310)">
<rect opacity="0.5" x="-10.1007" y="-20.1818" width="53.8705" height="105.955" fill="#166B8E"/>
<rect opacity="0.5" x="43.7698" y="-20.1818" width="28.6187" height="105.955" fill="#61B1D1"/>
<rect opacity="0.5" x="72.3885" y="-20.1818" width="53.8705" height="105.955" fill="#1D8FBD"/>
</g>
<path d="M43.3761 56.2045L40.2479 45.6595H27.5838L24.4556 56.2045H20.4193L31.4183 20.9873H36.4638L47.5133 56.2045H43.3761ZM35.2529 28.9591L34.1429 24.5695H33.6383L32.5283 28.9591L28.5424 42.3295H39.3397L35.2529 28.9591Z" fill="#166B8E"/>
<path d="M61.7467 56.81C59.2239 56.81 57.0207 56.2886 55.1371 55.2459C53.2535 54.1695 51.6894 52.6895 50.4448 50.8059L53.3712 48.3841C54.4476 49.965 55.6585 51.1927 57.0039 52.0673C58.3494 52.9082 59.9303 53.3286 61.7467 53.3286C66.523 53.3286 68.9112 51.0918 68.9112 46.6182C68.9112 44.8018 68.4739 43.4227 67.5994 42.4809C66.7248 41.5391 65.2112 40.7991 63.0585 40.2609L60.4348 39.605C57.3403 38.8314 55.053 37.7045 53.573 36.2245C52.1267 34.7109 51.4035 32.5918 51.4035 29.8673C51.4035 26.7391 52.3789 24.3845 54.3298 22.8036C56.2807 21.1891 58.8707 20.3818 62.0998 20.3818C64.5553 20.3818 66.6071 20.8359 68.2553 21.7441C69.9371 22.6523 71.4003 24.0818 72.6448 26.0327L69.668 28.1518C68.7598 26.7391 67.7171 25.6795 66.5398 24.9732C65.3962 24.2332 63.8657 23.8632 61.9485 23.8632C59.7957 23.8632 58.1476 24.3341 57.0039 25.2759C55.8939 26.2177 55.3389 27.7482 55.3389 29.8673C55.3389 31.5827 55.793 32.8777 56.7012 33.7523C57.643 34.6268 59.1398 35.3164 61.1917 35.8209L63.8153 36.4768C65.4635 36.8805 66.8594 37.3682 68.003 37.94C69.1467 38.4782 70.0717 39.1509 70.778 39.9582C71.518 40.7655 72.0394 41.7241 72.3421 42.8341C72.6785 43.9105 72.8467 45.1718 72.8467 46.6182C72.8467 49.9482 71.8544 52.4877 69.8698 54.2368C67.9189 55.9523 65.2112 56.81 61.7467 56.81Z" fill="#61B1D1"/>
<path d="M86.1359 56.81C83.9832 56.81 82.1332 56.3727 80.5859 55.4982C79.0723 54.6236 77.7773 53.4127 76.7009 51.8655L79.375 49.6455C80.2832 50.9236 81.2586 51.8991 82.3014 52.5718C83.3777 53.2445 84.6559 53.5809 86.1359 53.5809C87.6495 53.5809 88.8436 53.2109 89.7182 52.4709C90.6264 51.6973 91.0805 50.6041 91.0805 49.1914C91.0805 48.0477 90.7945 47.1227 90.2227 46.4164C89.6509 45.71 88.5914 45.2223 87.0441 44.9532L85.0764 44.6C82.5536 44.1291 80.67 43.3386 79.4255 42.2286C78.2145 41.1186 77.6091 39.4368 77.6091 37.1832C77.6091 35.8714 77.8109 34.7445 78.2145 33.8027C78.6182 32.8273 79.19 32.0368 79.93 31.4314C80.67 30.7923 81.5445 30.3382 82.5536 30.0691C83.5964 29.7664 84.7232 29.615 85.9341 29.615C87.885 29.615 89.5164 29.9682 90.8282 30.6745C92.1736 31.3473 93.3341 32.3395 94.3095 33.6514L91.8373 35.9218C91.2655 35.1145 90.5086 34.4082 89.5668 33.8027C88.625 33.1636 87.4141 32.8441 85.9341 32.8441C82.8732 32.8441 81.3427 34.24 81.3427 37.0318C81.3427 38.31 81.6623 39.2518 82.3014 39.8573C82.9741 40.4291 84.0505 40.8495 85.5305 41.1186L87.4982 41.4718C90.1555 41.9427 92.0391 42.7668 93.1491 43.9441C94.2591 45.1214 94.8141 46.7191 94.8141 48.7373C94.8141 51.26 94.0741 53.2445 92.5941 54.6909C91.1477 56.1036 88.995 56.81 86.1359 56.81Z" fill="#1D8FBD"/>
</svg>
