<svg width="40" height="40" viewBox="0 0 40 40" fill="none" xmlns="http://www.w3.org/2000/svg">
<path d="M15 12.5H30.2312L25.7475 8.0175L27.5 6.25L35 13.75L27.5 21.25L25.7475 19.4812L30.2275 15H15C13.0109 15 11.1032 15.7902 9.6967 17.1967C8.29018 18.6032 7.5 20.5109 7.5 22.5C7.5 24.4891 8.29018 26.3968 9.6967 27.8033C11.1032 29.2098 13.0109 30 15 30H25V32.5H15C12.3478 32.5 9.8043 31.4464 7.92893 29.5711C6.05357 27.6957 5 25.1522 5 22.5C5 19.8478 6.05357 17.3043 7.92893 15.4289C9.8043 13.5536 12.3478 12.5 15 12.5Z" fill="#404040"/>
</svg>
