<svg width="36" height="34" viewBox="0 0 36 34" fill="none" xmlns="http://www.w3.org/2000/svg">
<path fill-rule="evenodd" clip-rule="evenodd" d="M28.8333 27.8333C29.7174 27.8333 30.5652 27.4821 31.1904 26.857C31.8155 26.2319 32.1667 25.3841 32.1667 24.5C32.1667 23.2725 31.0558 21.6058 28.8333 19.5C26.6108 21.6058 25.5 23.2725 25.5 24.5C25.5 25.3841 25.8512 26.2319 26.4763 26.857C27.1014 27.4821 27.9493 27.8333 28.8333 27.8333Z" fill="#404040"/>
<path d="M15.3782 1.58667L18.324 4.53334" stroke="#404040" stroke-width="2" stroke-linecap="round"/>
<path d="M17.7349 3.94421L4.77075 16.9075L14.1999 26.3359L27.1633 13.3717L17.7349 3.94421Z" stroke="#404040" stroke-width="2" stroke-linejoin="round"/>
<path d="M7.99992 13.7275L22.1341 18.375M1.33325 32.8334H34.6666" stroke="#404040" stroke-width="2" stroke-linecap="round"/>
</svg>
