<svg width="40" height="40" viewBox="0 0 40 40" fill="none" xmlns="http://www.w3.org/2000/svg">
<path d="M6.25 6.25V33.75H33.75V6.25H6.25ZM5 3.75H35C35.3315 3.75 35.6495 3.8817 35.8839 4.11612C36.1183 4.35054 36.25 4.66848 36.25 5V35C36.25 35.3315 36.1183 35.6495 35.8839 35.8839C35.6495 36.1183 35.3315 36.25 35 36.25H5C4.66848 36.25 4.35054 36.1183 4.11612 35.8839C3.8817 35.6495 3.75 35.3315 3.75 35V5C3.75 4.66848 3.8817 4.35054 4.11612 4.11612C4.35054 3.8817 4.66848 3.75 5 3.75Z" fill="#404040"/>
<path d="M14.9998 11.25C16.6665 11.25 17.4998 12.0833 17.4998 13.75C17.4998 15.4167 16.6665 16.25 14.9998 16.25C13.3332 16.25 12.4998 15.4167 12.4998 13.75C12.4998 12.0833 13.3332 11.25 14.9998 11.25ZM7.24232 34.2575L5.25732 32.7375L13.6998 21.72C13.9992 21.329 14.3727 21.0007 14.799 20.7541C15.2252 20.5074 15.6959 20.3471 16.1841 20.2823C16.6723 20.2175 17.1685 20.2496 17.6443 20.3766C18.1202 20.5036 18.5663 20.7231 18.9573 21.0225L19.0298 21.08L23.8298 24.9525C24.0881 25.1604 24.4183 25.2571 24.7479 25.2215C25.0775 25.1858 25.3795 25.0207 25.5873 24.7625L34.0248 14.22L35.9748 15.78L27.5448 26.32L27.5348 26.3325C27.2257 26.7161 26.8439 27.035 26.4115 27.2711C25.979 27.5071 25.5043 27.6556 25.0144 27.708C24.5245 27.7605 24.0291 27.7159 23.5565 27.5769C23.0838 27.4378 22.6432 27.2069 22.2598 26.8975L17.4598 23.0275L17.4348 23.0075C17.1718 22.8067 16.8398 22.7184 16.5118 22.762C16.1837 22.8056 15.8863 22.9775 15.6848 23.24L7.24232 34.2575Z" fill="#404040"/>
</svg>
