<svg width="40" height="40" viewBox="0 0 40 40" fill="none" xmlns="http://www.w3.org/2000/svg">
<path d="M29.75 29.4185H10.25C10.1125 29.4185 10 29.534 10 29.6766V31.7418C10 31.8845 10.1125 32 10.25 32H29.75C29.8875 32 30 31.8845 30 31.7418V29.6766C30 29.534 29.8875 29.4185 29.75 29.4185ZM20 26.837C22.1687 26.837 24.2062 25.9164 25.7437 24.2486C27.2812 22.5808 28.125 20.3628 28.125 18.0054V7.40761C28.125 7.18342 27.9562 7 27.75 7H25.875C25.6687 7 25.5 7.18342 25.5 7.40761V18.0054C25.5 21.3003 23.0312 23.9837 20 23.9837C16.9688 23.9837 14.5 21.3003 14.5 18.0054V7.40761C14.5 7.18342 14.3313 7 14.125 7H12.25C12.0438 7 11.875 7.18342 11.875 7.40761V18.0054C11.875 20.3628 12.7219 22.5774 14.2563 24.2486C15.7906 25.9198 17.8313 26.837 20 26.837Z" fill="#505050"/>
<path d="M0 -1H35C38.3137 -1 41 1.68629 41 5H39C39 2.79086 37.2091 1 35 1H0V-1ZM41 35C41 38.3137 38.3137 41 35 41H0V39H35C37.2091 39 39 37.2091 39 35H41ZM0 40V0V40ZM35 -1C38.3137 -1 41 1.68629 41 5V35C41 38.3137 38.3137 41 35 41V39C37.2091 39 39 37.2091 39 35V5C39 2.79086 37.2091 1 35 1V-1Z" fill="#DCDCDC" mask="url(#path-1-inside-1_105_898)"/>
</svg>
