<svg width="40" height="40" viewBox="0 0 40 40" fill="none" xmlns="http://www.w3.org/2000/svg">
<path d="M25 12.5H9.76875L14.2525 8.0175L12.5 6.25L5 13.75L12.5 21.25L14.2525 19.4812L9.7725 15H25C26.9891 15 28.8968 15.7902 30.3033 17.1967C31.7098 18.6032 32.5 20.5109 32.5 22.5C32.5 24.4891 31.7098 26.3968 30.3033 27.8033C28.8968 29.2098 26.9891 30 25 30H15V32.5H25C27.6522 32.5 30.1957 31.4464 32.0711 29.5711C33.9464 27.6957 35 25.1522 35 22.5C35 19.8478 33.9464 17.3043 32.0711 15.4289C30.1957 13.5536 27.6522 12.5 25 12.5Z" fill="#404040"/>
</svg>
